<mxfile host="app.diagrams.net" modified="2023-10-13T11:04:01.145Z" agent="Mozilla/5.0 (Windows NT 10.0; Win64; x64) AppleWebKit/537.36 (KHTML, like Gecko) Chrome/117.0.0.0 Safari/537.36" etag="rgIpPOVRscMZvB8r-FJ_" version="22.0.4" type="device">
  <diagram name="Страница — 1" id="1k-vL73gggdqp_AbF68N">
    <mxGraphModel dx="1434" dy="790" grid="1" gridSize="10" guides="1" tooltips="1" connect="1" arrows="1" fold="1" page="1" pageScale="1" pageWidth="827" pageHeight="1169" math="0" shadow="0">
      <root>
        <mxCell id="0" />
        <mxCell id="1" parent="0" />
        <mxCell id="wWY2loj6jUMyI3MRD4F--1" value="посетитель" style="shape=umlActor;verticalLabelPosition=bottom;verticalAlign=top;html=1;outlineConnect=0;" vertex="1" parent="1">
          <mxGeometry x="40" y="270" width="60" height="100" as="geometry" />
        </mxCell>
        <mxCell id="wWY2loj6jUMyI3MRD4F--2" value="библиотекарь" style="rounded=1;whiteSpace=wrap;html=1;" vertex="1" parent="1">
          <mxGeometry x="280" y="200" width="160" height="80" as="geometry" />
        </mxCell>
        <mxCell id="wWY2loj6jUMyI3MRD4F--4" value="" style="endArrow=none;html=1;rounded=0;endFill=0;" edge="1" parent="1">
          <mxGeometry width="50" height="50" relative="1" as="geometry">
            <mxPoint x="440" y="250" as="sourcePoint" />
            <mxPoint x="610" y="250" as="targetPoint" />
          </mxGeometry>
        </mxCell>
        <mxCell id="wWY2loj6jUMyI3MRD4F--6" value="Издательство" style="rounded=1;whiteSpace=wrap;html=1;" vertex="1" parent="1">
          <mxGeometry x="610" y="210" width="120" height="60" as="geometry" />
        </mxCell>
        <mxCell id="wWY2loj6jUMyI3MRD4F--7" style="edgeStyle=orthogonalEdgeStyle;rounded=0;orthogonalLoop=1;jettySize=auto;html=1;exitX=0.5;exitY=1;exitDx=0;exitDy=0;" edge="1" parent="1" source="wWY2loj6jUMyI3MRD4F--6" target="wWY2loj6jUMyI3MRD4F--6">
          <mxGeometry relative="1" as="geometry" />
        </mxCell>
        <mxCell id="wWY2loj6jUMyI3MRD4F--8" value="" style="endArrow=none;html=1;rounded=0;endFill=0;" edge="1" parent="1">
          <mxGeometry width="50" height="50" relative="1" as="geometry">
            <mxPoint x="680" y="269.5" as="sourcePoint" />
            <mxPoint x="680" y="400" as="targetPoint" />
          </mxGeometry>
        </mxCell>
        <mxCell id="wWY2loj6jUMyI3MRD4F--9" value="поставщик" style="rounded=1;whiteSpace=wrap;html=1;" vertex="1" parent="1">
          <mxGeometry x="620" y="400" width="120" height="60" as="geometry" />
        </mxCell>
        <mxCell id="wWY2loj6jUMyI3MRD4F--11" value="склад" style="rounded=1;whiteSpace=wrap;html=1;" vertex="1" parent="1">
          <mxGeometry x="620" y="570" width="120" height="60" as="geometry" />
        </mxCell>
        <mxCell id="wWY2loj6jUMyI3MRD4F--12" value="" style="endArrow=none;html=1;rounded=0;exitX=0;exitY=0.75;exitDx=0;exitDy=0;endFill=0;" edge="1" parent="1" source="wWY2loj6jUMyI3MRD4F--11">
          <mxGeometry width="50" height="50" relative="1" as="geometry">
            <mxPoint x="470" y="510" as="sourcePoint" />
            <mxPoint x="420" y="615" as="targetPoint" />
          </mxGeometry>
        </mxCell>
        <mxCell id="wWY2loj6jUMyI3MRD4F--13" value="Служба доставки" style="rounded=1;whiteSpace=wrap;html=1;" vertex="1" parent="1">
          <mxGeometry x="300" y="580" width="120" height="60" as="geometry" />
        </mxCell>
        <mxCell id="wWY2loj6jUMyI3MRD4F--14" value="" style="endArrow=none;html=1;rounded=0;endFill=0;exitX=0.817;exitY=0.017;exitDx=0;exitDy=0;exitPerimeter=0;" edge="1" parent="1" source="wWY2loj6jUMyI3MRD4F--13">
          <mxGeometry width="50" height="50" relative="1" as="geometry">
            <mxPoint x="450" y="390" as="sourcePoint" />
            <mxPoint x="398" y="280" as="targetPoint" />
          </mxGeometry>
        </mxCell>
        <mxCell id="wWY2loj6jUMyI3MRD4F--15" value="" style="endArrow=classic;html=1;rounded=0;" edge="1" parent="1">
          <mxGeometry width="50" height="50" relative="1" as="geometry">
            <mxPoint x="120" y="300" as="sourcePoint" />
            <mxPoint x="220" y="270" as="targetPoint" />
          </mxGeometry>
        </mxCell>
        <mxCell id="wWY2loj6jUMyI3MRD4F--18" value="склад библиотеки" style="rounded=1;whiteSpace=wrap;html=1;" vertex="1" parent="1">
          <mxGeometry x="150" y="460" width="120" height="60" as="geometry" />
        </mxCell>
        <mxCell id="wWY2loj6jUMyI3MRD4F--21" value="" style="endArrow=none;html=1;rounded=0;entryX=0.25;entryY=1;entryDx=0;entryDy=0;" edge="1" parent="1" target="wWY2loj6jUMyI3MRD4F--2">
          <mxGeometry width="50" height="50" relative="1" as="geometry">
            <mxPoint x="190" y="450" as="sourcePoint" />
            <mxPoint x="370" y="350" as="targetPoint" />
          </mxGeometry>
        </mxCell>
        <mxCell id="wWY2loj6jUMyI3MRD4F--22" value="" style="endArrow=none;html=1;rounded=0;" edge="1" parent="1" source="wWY2loj6jUMyI3MRD4F--1">
          <mxGeometry width="50" height="50" relative="1" as="geometry">
            <mxPoint x="240" y="330" as="sourcePoint" />
            <mxPoint x="290" y="280" as="targetPoint" />
          </mxGeometry>
        </mxCell>
        <mxCell id="wWY2loj6jUMyI3MRD4F--23" value="1)подача заявки" style="text;html=1;align=center;verticalAlign=middle;resizable=0;points=[];autosize=1;strokeColor=none;fillColor=none;rotation=0;" vertex="1" parent="1">
          <mxGeometry x="110" y="238" width="110" height="30" as="geometry" />
        </mxCell>
        <mxCell id="wWY2loj6jUMyI3MRD4F--24" value="" style="endArrow=classic;html=1;rounded=0;" edge="1" parent="1">
          <mxGeometry width="50" height="50" relative="1" as="geometry">
            <mxPoint x="460" y="230" as="sourcePoint" />
            <mxPoint x="580" y="230" as="targetPoint" />
          </mxGeometry>
        </mxCell>
        <mxCell id="wWY2loj6jUMyI3MRD4F--25" value="2) оформление заказа" style="text;html=1;align=center;verticalAlign=middle;resizable=0;points=[];autosize=1;strokeColor=none;fillColor=none;" vertex="1" parent="1">
          <mxGeometry x="435" y="208" width="150" height="30" as="geometry" />
        </mxCell>
        <mxCell id="wWY2loj6jUMyI3MRD4F--26" value="" style="endArrow=classic;html=1;rounded=0;" edge="1" parent="1">
          <mxGeometry width="50" height="50" relative="1" as="geometry">
            <mxPoint x="620" y="140" as="sourcePoint" />
            <mxPoint x="710" y="140" as="targetPoint" />
          </mxGeometry>
        </mxCell>
        <mxCell id="wWY2loj6jUMyI3MRD4F--27" value="3)изготовление книги" style="text;html=1;align=center;verticalAlign=middle;resizable=0;points=[];autosize=1;strokeColor=none;fillColor=none;" vertex="1" parent="1">
          <mxGeometry x="600" y="100" width="140" height="30" as="geometry" />
        </mxCell>
        <mxCell id="wWY2loj6jUMyI3MRD4F--28" value="" style="curved=1;endArrow=none;html=1;rounded=0;endFill=0;" edge="1" parent="1">
          <mxGeometry width="50" height="50" relative="1" as="geometry">
            <mxPoint x="640" y="210" as="sourcePoint" />
            <mxPoint x="690" y="210" as="targetPoint" />
            <Array as="points">
              <mxPoint x="664" y="140" />
              <mxPoint x="680" y="170" />
            </Array>
          </mxGeometry>
        </mxCell>
        <mxCell id="wWY2loj6jUMyI3MRD4F--29" value="" style="endArrow=classic;html=1;rounded=0;" edge="1" parent="1">
          <mxGeometry width="50" height="50" relative="1" as="geometry">
            <mxPoint x="730" y="290" as="sourcePoint" />
            <mxPoint x="730" y="380" as="targetPoint" />
          </mxGeometry>
        </mxCell>
        <mxCell id="wWY2loj6jUMyI3MRD4F--31" value="4) отправка книги" style="text;html=1;align=center;verticalAlign=middle;resizable=0;points=[];autosize=1;strokeColor=none;fillColor=none;" vertex="1" parent="1">
          <mxGeometry x="735" y="318" width="120" height="30" as="geometry" />
        </mxCell>
        <mxCell id="wWY2loj6jUMyI3MRD4F--32" value="" style="endArrow=classic;html=1;rounded=0;" edge="1" parent="1">
          <mxGeometry width="50" height="50" relative="1" as="geometry">
            <mxPoint x="735" y="470" as="sourcePoint" />
            <mxPoint x="735" y="560" as="targetPoint" />
          </mxGeometry>
        </mxCell>
        <mxCell id="wWY2loj6jUMyI3MRD4F--33" value="&amp;nbsp; &amp;nbsp; &amp;nbsp; &amp;nbsp; &amp;nbsp; &amp;nbsp; &amp;nbsp; &amp;nbsp; &amp;nbsp; &amp;nbsp; &amp;nbsp; 5)доставка книги" style="text;html=1;align=center;verticalAlign=middle;resizable=0;points=[];autosize=1;strokeColor=none;fillColor=none;" vertex="1" parent="1">
          <mxGeometry x="655" y="498" width="190" height="30" as="geometry" />
        </mxCell>
        <mxCell id="wWY2loj6jUMyI3MRD4F--34" value="" style="endArrow=none;html=1;rounded=0;exitX=0;exitY=0;exitDx=0;exitDy=0;entryX=1;entryY=1;entryDx=0;entryDy=0;endFill=0;" edge="1" parent="1" source="wWY2loj6jUMyI3MRD4F--9" target="wWY2loj6jUMyI3MRD4F--2">
          <mxGeometry width="50" height="50" relative="1" as="geometry">
            <mxPoint x="485" y="358" as="sourcePoint" />
            <mxPoint x="535" y="308" as="targetPoint" />
          </mxGeometry>
        </mxCell>
        <mxCell id="wWY2loj6jUMyI3MRD4F--35" value="6) сообщить о доставке на склад" style="text;html=1;align=center;verticalAlign=middle;resizable=0;points=[];autosize=1;strokeColor=none;fillColor=none;" vertex="1" parent="1">
          <mxGeometry x="470" y="280" width="210" height="30" as="geometry" />
        </mxCell>
        <mxCell id="wWY2loj6jUMyI3MRD4F--36" value="" style="endArrow=none;html=1;rounded=0;" edge="1" parent="1" source="wWY2loj6jUMyI3MRD4F--11">
          <mxGeometry width="50" height="50" relative="1" as="geometry">
            <mxPoint x="630" y="510" as="sourcePoint" />
            <mxPoint x="680" y="460" as="targetPoint" />
          </mxGeometry>
        </mxCell>
        <mxCell id="wWY2loj6jUMyI3MRD4F--37" value="" style="endArrow=classic;html=1;rounded=0;" edge="1" parent="1">
          <mxGeometry width="50" height="50" relative="1" as="geometry">
            <mxPoint x="600" y="350" as="sourcePoint" />
            <mxPoint x="510" y="300" as="targetPoint" />
          </mxGeometry>
        </mxCell>
        <mxCell id="wWY2loj6jUMyI3MRD4F--39" value="" style="endArrow=classic;html=1;rounded=0;" edge="1" parent="1">
          <mxGeometry width="50" height="50" relative="1" as="geometry">
            <mxPoint x="415" y="400" as="sourcePoint" />
            <mxPoint x="415" y="470" as="targetPoint" />
          </mxGeometry>
        </mxCell>
        <mxCell id="wWY2loj6jUMyI3MRD4F--40" value="7)&amp;nbsp; оформление доставки" style="text;html=1;align=center;verticalAlign=middle;resizable=0;points=[];autosize=1;strokeColor=none;fillColor=none;" vertex="1" parent="1">
          <mxGeometry x="420" y="418" width="170" height="30" as="geometry" />
        </mxCell>
        <mxCell id="wWY2loj6jUMyI3MRD4F--41" value="" style="endArrow=classic;html=1;rounded=0;" edge="1" parent="1">
          <mxGeometry width="50" height="50" relative="1" as="geometry">
            <mxPoint x="447.5" y="600" as="sourcePoint" />
            <mxPoint x="572.5" y="600" as="targetPoint" />
          </mxGeometry>
        </mxCell>
        <mxCell id="wWY2loj6jUMyI3MRD4F--42" value="8) забрать книгу со склада" style="text;html=1;align=center;verticalAlign=middle;resizable=0;points=[];autosize=1;strokeColor=none;fillColor=none;" vertex="1" parent="1">
          <mxGeometry x="430" y="570" width="170" height="30" as="geometry" />
        </mxCell>
        <mxCell id="wWY2loj6jUMyI3MRD4F--44" value="" style="endArrow=classic;html=1;rounded=0;" edge="1" parent="1">
          <mxGeometry width="50" height="50" relative="1" as="geometry">
            <mxPoint x="575" y="640" as="sourcePoint" />
            <mxPoint x="455" y="640" as="targetPoint" />
          </mxGeometry>
        </mxCell>
        <mxCell id="wWY2loj6jUMyI3MRD4F--45" value="&amp;nbsp; &amp;nbsp; &amp;nbsp; &amp;nbsp; &amp;nbsp; &amp;nbsp; 9) выдача книги" style="text;html=1;align=center;verticalAlign=middle;resizable=0;points=[];autosize=1;strokeColor=none;fillColor=none;" vertex="1" parent="1">
          <mxGeometry x="415" y="618" width="150" height="30" as="geometry" />
        </mxCell>
        <mxCell id="wWY2loj6jUMyI3MRD4F--48" value="" style="endArrow=none;html=1;rounded=0;entryX=0.5;entryY=1;entryDx=0;entryDy=0;exitX=0;exitY=0.5;exitDx=0;exitDy=0;" edge="1" parent="1" source="wWY2loj6jUMyI3MRD4F--13" target="wWY2loj6jUMyI3MRD4F--18">
          <mxGeometry width="50" height="50" relative="1" as="geometry">
            <mxPoint x="280" y="530" as="sourcePoint" />
            <mxPoint x="410" y="360" as="targetPoint" />
          </mxGeometry>
        </mxCell>
        <mxCell id="wWY2loj6jUMyI3MRD4F--49" value="" style="endArrow=classic;html=1;rounded=0;" edge="1" parent="1">
          <mxGeometry width="50" height="50" relative="1" as="geometry">
            <mxPoint x="260" y="600" as="sourcePoint" />
            <mxPoint x="209.5" y="540" as="targetPoint" />
          </mxGeometry>
        </mxCell>
        <mxCell id="wWY2loj6jUMyI3MRD4F--50" value="10) доставка на склад" style="text;html=1;align=center;verticalAlign=middle;resizable=0;points=[];autosize=1;strokeColor=none;fillColor=none;" vertex="1" parent="1">
          <mxGeometry x="90" y="558" width="150" height="30" as="geometry" />
        </mxCell>
        <mxCell id="wWY2loj6jUMyI3MRD4F--52" value="11) передача книги" style="text;html=1;align=center;verticalAlign=middle;resizable=0;points=[];autosize=1;strokeColor=none;fillColor=none;" vertex="1" parent="1">
          <mxGeometry x="250" y="400" width="130" height="30" as="geometry" />
        </mxCell>
        <mxCell id="wWY2loj6jUMyI3MRD4F--54" value="" style="endArrow=classic;html=1;rounded=0;" edge="1" parent="1">
          <mxGeometry width="50" height="50" relative="1" as="geometry">
            <mxPoint x="255" y="305" as="sourcePoint" />
            <mxPoint x="150" y="330" as="targetPoint" />
          </mxGeometry>
        </mxCell>
        <mxCell id="wWY2loj6jUMyI3MRD4F--56" value="12)выдача книги" style="text;html=1;align=center;verticalAlign=middle;resizable=0;points=[];autosize=1;strokeColor=none;fillColor=none;" vertex="1" parent="1">
          <mxGeometry x="140" y="340" width="120" height="30" as="geometry" />
        </mxCell>
        <mxCell id="wWY2loj6jUMyI3MRD4F--57" value="" style="endArrow=classic;html=1;rounded=0;" edge="1" parent="1">
          <mxGeometry width="50" height="50" relative="1" as="geometry">
            <mxPoint x="240" y="420" as="sourcePoint" />
            <mxPoint x="280" y="368" as="targetPoint" />
          </mxGeometry>
        </mxCell>
      </root>
    </mxGraphModel>
  </diagram>
</mxfile>
